<svg width="72" height="77" viewBox="0 0 72 77" fill="none" xmlns="http://www.w3.org/2000/svg">
<path d="M8.36 58.4V20.8H17.96V23.64H11.52V55.56H17.96V58.4H8.36ZM54.0088 58.4V55.56H60.4488V23.64H54.0088V20.8H63.6088V58.4H54.0088Z" fill="#F3F1F0"/>
<path d="M26.28 51L34.08 39.68L26.76 29H30.48L35.12 36.12C35.28 36.3867 35.44 36.6933 35.6 37.04C35.7867 37.36 35.9333 37.6133 36.04 37.8C36.1467 37.6133 36.28 37.36 36.44 37.04C36.6267 36.6933 36.8 36.3867 36.96 36.12L41.6 29H45.28L37.96 39.72L45.72 51H42L37.04 43.48C36.8533 43.2133 36.6667 42.8933 36.48 42.52C36.32 42.1467 36.1733 41.8533 36.04 41.64C35.9333 41.8533 35.7733 42.1467 35.56 42.52C35.3467 42.8933 35.1467 43.2133 34.96 43.48L29.96 51H26.28Z" fill="#F3F1F0"/>
</svg>
