<svg width="93" height="72" viewBox="0 0 93 72" fill="none" xmlns="http://www.w3.org/2000/svg">
<path d="M0 21V6H18V9H21V21H15V9H6V21H0ZM27 21V18H24V9H27V6H42V9H45V18H42V21H27ZM30 18H39V9H30V18ZM57 9H60V12H57V21H51V6H57V9ZM69 6V9H60V6H69ZM75 21V18H72V9H75V6H87V0H93V21H75ZM78 18H87V9H78V18ZM6 42H9V45H3V42H0V30H6V42ZM12 30V42H9V30H12ZM21 30V42H18V45H12V42H15V30H21ZM27 45V42H24V39H27V36H39V33H27V30H42V33H45V45H27ZM30 42H39V39H30V42ZM51 45V42H57V27H54V24H63V42H69V45H51ZM75 45V42H72V33H75V30H87V24H93V45H75ZM78 42H87V33H78V42ZM3 69V66H0V48H6V54H18V57H21V66H18V69H3ZM6 66H15V57H6V66ZM27 69V66H24V57H27V54H42V57H45V63H30V66H42V69H27ZM30 60H39V57H30V60ZM57 57H60V60H57V69H51V54H57V57ZM69 54V57H60V54H69ZM75 72V69H87V66H75V63H72V57H75V54H93V69H90V72H75ZM78 63H87V57H78V63Z" fill="#F3F1F0"/>
</svg>
